<svg viewBox="0 0 600 340" xmlns="http://www.w3.org/2000/svg">
  <rect width="600" height="340" fill="#F6F1E4"/>
  <rect x="60" y="60" width="300" height="190" rx="6" fill="#1B3550"/>
  <rect x="78" y="78" width="264" height="150" rx="2" fill="#F6F1E4"/>
  <rect x="150" y="250" width="120" height="10" rx="2" fill="#1B3550"/>
  <rect x="180" y="260" width="60" height="12" rx="2" fill="#1B3550"/>
  <rect x="98" y="98" width="120" height="10" fill="#D9A441"/>
  <rect x="98" y="118" width="224" height="6" fill="#5C6B78" opacity="0.4"/>
  <rect x="98" y="132" width="180" height="6" fill="#5C6B78" opacity="0.4"/>
  <rect x="98" y="146" width="200" height="6" fill="#5C6B78" opacity="0.4"/>
  <rect x="400" y="90" width="130" height="220" rx="18" fill="#1B3550"/>
  <rect x="412" y="112" width="106" height="176" rx="2" fill="#F6F1E4"/>
  <circle cx="465" cy="296" r="8" fill="#12253A"/>
  <circle cx="440" cy="150" r="20" fill="#D9A441"/>
  <path d="M432,150 l6,6 l12,-14" stroke="#F6F1E4" stroke-width="3" fill="none" stroke-linecap="round" stroke-linejoin="round"/>
  <rect x="424" y="190" width="82" height="8" fill="#5C6B78" opacity="0.4"/>
  <rect x="424" y="206" width="60" height="8" fill="#5C6B78" opacity="0.4"/>
  <rect x="424" y="222" width="70" height="8" fill="#5C6B78" opacity="0.4"/>
</svg>
